# xmcd
#
# Track frame offsets:
#	150
#	11145
#	29192
#	45175
#	58032
#	76572
#	94280
#	107070
#	123897
#	139720
#	156005
#	171222
#	185895
#	204700
#	219735
#
# Disc length: 3180 seconds
#
# Revision: 0
# Processed by: cddbd v1.5.1PL2 Copyright (c) Steve Scherf et al.
# Submitted via: dBpowerAMP V4.0
#
DISCID=d10c6a0f
DTITLE=Mac Wiseman - 15 of My Grandma's Favorites
DYEAR=1900
DGENRE=Bluegrass
TTITLE0=When You and I Were Young Maggie
TTITLE1=Precious Memories
TTITLE2=Great Judgement Morning
TTITLE3=Old Spinning Wheel
TTITLE4=Letter Edged In Black
TTITLE5=Don't Make Me Go To Bed and I Will Be Good 
TTITLE6=Hold Fast To The Right
TTITLE7=Have I Told You Lately That I Love You
TTITLE8=Will The Circle Be Unbroken
TTITLE9=Rocking Alone In An Old Rocking Chair
TTITLE10=Silver Threads Among The Gold
TTITLE11=Bringing Mary Home
TTITLE12=Prisoner's Song
TTITLE13=Mama, Put My Little Shoes Away
TTITLE14=Silver Haired Daddy
EXTD=
EXTT0=
EXTT1=
EXTT2=
EXTT3=
EXTT4=
EXTT5=
EXTT6=
EXTT7=
EXTT8=
EXTT9=
EXTT10=
EXTT11=
EXTT12=
EXTT13=
EXTT14=
PLAYORDER=
